<svg width="453" height="401" viewBox="0 0 453 401" fill="none" xmlns="http://www.w3.org/2000/svg">
<path fill-rule="evenodd" clip-rule="evenodd" d="M205.212 3.95935L185.394 19.817C182.658 23.2 181.625 27.1795 182.526 31.8076L192.28 103.286L165.18 63.0898C162.738 60.6724 159.486 59.0641 155.333 58.3329C148.217 56.8146 141.302 56.1743 134.761 57.1157L126.882 59.2866L105.666 74.4678C100.174 79.2117 97.8253 84.7966 100.859 91.7927L116.392 113.52C116.008 113.763 115.643 114.039 115.297 114.334L85.8614 139.656C84.0017 141.772 82.5271 143.991 81.9104 146.279C72.2574 135.912 62.8722 126.266 54.0964 117.474C52.6035 115.98 50.5188 115.183 48.1224 114.89C38.0353 113.678 26.8557 117.946 20.0203 124.856L5.05428 139.967C0.76507 144.82 -1.50715 150.292 4.14945 155.682C6.60953 158.011 9.31183 160.045 11.731 162.252C35.6308 184.06 54.7816 203.881 70.6933 225.677C69.484 226.049 68.3055 226.617 67.2417 227.399C63.3929 230.223 61.9858 235.054 63.8181 239.156C70.1177 253.203 78.5281 279.734 88.5055 311.197C120.521 412.163 168.095 562.176 230.438 548.509L467.177 492.766C477.479 485.55 480.26 465.289 477.888 436.086C476.011 419.339 458.194 272.128 448.436 193.942C448.047 190.83 436.207 272.717 314.465 321.471C270.671 339.009 181.271 349.027 114.83 320.158C114.525 320.025 116.394 318.02 120.021 318.792C249.885 346.423 302.721 307.397 314.34 307.818C404.38 274.504 451.692 190.798 446.305 185.437C446.305 185.437 442.902 156.311 442.841 153.719C442.707 148.256 437.842 144.065 431.987 144.382C430.322 144.462 428.753 144.905 427.362 145.618C427.685 112.332 432.464 85.3569 448.646 45.116C449.865 42.067 451.423 39.0728 452.616 35.9097C455.374 28.6002 450.952 24.6539 444.994 22.1397L424.951 15.0202C415.794 11.7608 403.861 12.7707 395.299 18.2395C393.276 19.5288 391.743 21.149 391.049 23.1546C386.874 35.1425 382.932 48.3248 379.316 62.3081C377.845 59.9452 375.153 58.2457 372.044 56.9283L334.549 46.8839C334.135 46.7743 333.718 46.7024 333.303 46.6412L337.724 21.2822C338.107 12.4148 334.891 9.26362 328.259 7.31119L303.247 2.63299C299.073 2.20645 295.058 2.47357 291.325 3.9253C287.81 5.81918 284.051 8.00958 279.764 10.3196C276.641 12.004 274.649 12.9732 271.956 15.3511C269.686 17.3686 267.904 19.5997 266.966 22.2368L265.471 32.7005C263.632 45.5106 262.204 54.9054 261.915 65.6585L255.522 12.3016C255.597 5.99924 252.865 2.47335 248.3 0.732588L205.212 3.95935ZM191.524 26.7177L230.998 23.6461C233.929 106.846 255.22 210.347 278.926 291.207C279.491 293.138 269.969 159.438 269.411 81.0167C269.166 46.5572 277.306 26.0427 277.556 26.8744C277.717 27.4068 313.219 32.7398 313.219 32.7398C289.588 76.9606 307.924 246.723 311.999 269.09L279.142 291.9C279.142 291.9 283.972 307.961 284.184 308.645L256.381 315.615C252.423 306.611 248.75 298.394 245.314 290.938L245.108 290.493L245.027 290.318C238.968 277.44 232.293 264.005 225.155 250.426L225.093 250.152L223.781 247.814C223.325 245.786 115.293 89.7986 113.505 88.5516C107.249 84.1891 142.822 65.267 149.531 69.6206C163.111 78.4328 189.965 115.483 189.965 115.483C189.965 115.483 203.958 185.483 212.097 216.965C219.636 246.13 221.372 236.975 221.265 236.486C205.841 166.109 190.904 79.9859 191.524 26.7177ZM43.3721 126.793C95.8493 174.571 142.442 225.313 170.811 292.555L129.646 288.505C109.181 236.898 72.5731 188.16 23.4857 146.217L43.3721 126.793ZM127.613 124.801C180.077 172.582 209.197 236.702 243.21 307.238L199.914 306.265C174.768 251.157 153.048 206.123 101.058 148.855L127.613 124.801ZM374.156 83.8649C368.822 107.828 363.071 133.496 359.235 158.863C354.93 187.335 352.692 215.088 356.853 240.307C358.156 248.205 393.481 42.1217 396.708 26.4273C396.81 25.9283 437.844 39.7308 437.844 39.7308C430.76 57.1605 418.418 107.854 415.094 148.231C413.971 161.864 378.736 234.171 378.736 234.171L355.625 244.014L351.56 253.047C351.56 253.047 320.894 267.796 320.531 265.306C316.215 235.673 310.035 68.6594 327.327 67.2884L374.156 83.8649Z" fill="#3C3F4A"/>
</svg>
