<svg width="182" height="102" viewBox="0 0 182 102" fill="none" xmlns="http://www.w3.org/2000/svg">
<g id="decor2 1">
<g id="layer1">
<g id="g64471">
<path id="path63344" d="M64.1859 11.8732L37.3718 38.6313L14.5882 15.8477L6.52719 23.9087L37.3718 54.7533L64.1859 27.9392L91 54.7533L117.814 27.9392L144.628 54.7533L175.473 23.9087L167.412 15.8477L144.628 38.6313L117.814 11.8732L91 38.6313L64.1859 11.8732Z" fill="#3C3F4A"/>
<path id="path64437" d="M64.1859 50.3309L37.3718 77.145L14.5882 54.3055L6.52719 62.3665L37.3718 93.2111L64.1859 66.397L91 93.2111L117.814 66.397L144.628 93.2111L175.473 62.3665L167.412 54.3055L144.628 77.0891L117.814 50.3309L91 77.145L64.1859 50.3309Z" fill="#3C3F4A"/>
</g>
</g>
</g>
</svg>
