<?xml version="1.0" standalone="no"?>
<!DOCTYPE svg PUBLIC "-//W3C//DTD SVG 20010904//EN"
 "http://www.w3.org/TR/2001/REC-SVG-20010904/DTD/svg10.dtd">
<svg version="1.0" xmlns="http://www.w3.org/2000/svg"
 width="700.000000pt" height="700.000000pt" viewBox="0 0 700.000000 700.000000"
 preserveAspectRatio="xMidYMid meet">
<metadata>
Created by potrace 1.14, written by Peter Selinger 2001-2017
</metadata>
<g transform="translate(0.000000,700.000000) scale(0.100000,-0.100000)"
fill="#000000" stroke="none">
<path d="M3085 6424 c-33 -25 -64 -49 -68 -53 -5 -5 7 -33 26 -62 19 -30 47
-85 63 -124 27 -66 29 -78 29 -210 -1 -126 -4 -148 -29 -225 -30 -89 -74 -183
-149 -313 -25 -43 -58 -117 -73 -165 -27 -80 -29 -98 -28 -232 1 -121 5 -160
26 -235 57 -208 98 -362 103 -388 4 -21 10 -27 23 -23 9 2 48 7 85 11 l68 7
-7 46 c-4 26 -22 103 -42 172 -73 264 -83 307 -89 386 -8 106 15 205 69 304
102 186 121 224 148 289 78 189 97 403 51 565 -21 76 -92 227 -129 273 l-17
22 -60 -45z"/>
<path d="M3495 6424 c-33 -25 -64 -49 -68 -53 -5 -5 8 -34 28 -65 20 -31 48
-87 63 -124 24 -61 26 -79 26 -207 0 -127 -2 -148 -28 -224 -32 -96 -73 -184
-134 -286 -94 -158 -128 -290 -119 -460 6 -113 15 -153 86 -404 23 -79 41
-153 41 -165 0 -40 10 -44 95 -34 44 6 82 11 84 14 8 7 -22 134 -70 299 -62
211 -78 326 -61 428 12 70 61 190 102 246 10 16 39 68 63 117 118 237 152 461
102 659 -15 61 -100 242 -132 282 l-18 22 -60 -45z"/>
<path d="M3905 6424 c-33 -25 -64 -49 -68 -53 -4 -4 12 -40 36 -79 24 -39 54
-105 67 -148 19 -66 22 -92 17 -193 -6 -162 -52 -300 -158 -476 -138 -231
-162 -428 -84 -710 20 -71 50 -185 67 -253 25 -97 35 -121 47 -118 9 2 47 7
85 11 l68 7 -7 46 c-8 51 -32 146 -90 347 -32 112 -38 145 -39 240 -1 137 13
185 102 338 223 389 249 701 82 987 -65 110 -56 106 -125 54z"/>
<path d="M4046 4852 c-3 -9 -8 -50 -12 -89 l-7 -73 28 0 c50 0 319 -59 436
-96 230 -72 427 -192 473 -288 21 -44 21 -105 -1 -136 -129 -194 -494 -334
-1053 -402 -141 -17 -719 -17 -860 0 -355 44 -595 105 -805 208 -168 81 -265
178 -265 263 0 129 217 277 541 370 57 16 121 33 142 37 20 3 40 10 43 16 6
10 -15 140 -25 157 -5 7 -46 1 -121 -19 -436 -111 -690 -277 -745 -486 -13
-49 -14 -79 -5 -174 5 -63 28 -459 50 -880 58 -1103 91 -1541 146 -1900 41
-271 91 -444 143 -501 67 -73 555 -240 841 -288 509 -86 959 -34 1636 190 165
55 218 76 230 94 40 61 80 233 110 472 l18 141 37 -19 c21 -10 56 -23 78 -28
47 -10 42 -20 61 139 15 127 14 137 -15 144 -39 10 -30 32 23 51 309 116 477
304 607 675 61 177 78 282 78 475 0 322 -49 484 -187 620 -81 80 -153 125
-258 163 -60 21 -92 26 -175 26 -85 1 -103 4 -103 16 0 8 7 130 15 270 14 230
13 262 0 315 -68 259 -430 446 -1067 550 -19 3 -28 -1 -32 -13z m-1016 -1256
c58 -7 115 -17 126 -24 57 -31 85 -215 49 -323 -31 -91 -212 -349 -419 -594
-158 -189 -191 -246 -149 -262 34 -13 106 43 263 204 188 194 346 371 482 543
184 232 248 298 322 331 26 12 30 11 51 -13 13 -15 31 -47 40 -72 l18 -46 -70
-117 c-38 -65 -113 -186 -165 -269 -176 -278 -282 -486 -295 -581 -6 -43 -5
-46 13 -39 10 4 48 17 84 29 50 17 79 36 133 87 125 117 260 307 400 564 l75
137 -16 48 c-15 48 -15 50 11 92 38 66 120 163 140 167 24 5 57 -55 57 -104 0
-124 -162 -521 -305 -748 -30 -49 -54 -91 -52 -93 2 -2 31 4 63 12 32 9 92 19
132 22 70 6 74 5 102 -22 38 -36 74 -126 67 -165 -4 -16 -52 -97 -107 -180
-55 -82 -97 -150 -94 -150 8 0 288 144 611 314 121 64 228 116 237 116 9 0 19
-7 22 -15 8 -21 -60 -128 -122 -191 -49 -51 -56 -55 -96 -53 -37 1 -93 -23
-418 -185 -368 -182 -376 -186 -406 -233 -17 -27 -38 -60 -48 -74 l-17 -27
337 -228 c359 -243 426 -297 443 -360 15 -52 14 -113 -2 -144 -18 -34 -48 -29
-122 21 -33 23 -223 151 -422 285 l-362 244 -95 -125 c-53 -69 -96 -134 -96
-146 0 -28 -129 -160 -186 -190 -46 -25 -65 -22 -88 13 -17 28 13 75 187 292
93 116 173 216 178 221 4 6 1 31 -8 56 -36 100 5 160 177 253 l115 63 86 117
c99 136 151 218 153 243 5 62 -254 -28 -717 -251 -209 -100 -227 -104 -256
-48 -10 19 -9 34 7 85 32 100 33 106 41 237 10 151 27 206 129 414 40 83 65
142 54 131 -10 -11 -79 -91 -152 -178 -424 -503 -598 -640 -688 -544 -58 61
-82 196 -54 292 18 63 194 299 361 485 283 313 318 375 241 415 -16 8 -41 15
-56 15 -84 0 -245 -68 -529 -224 -91 -51 -173 -89 -190 -90 -27 -1 -30 3 -33
30 -4 42 55 261 80 299 26 40 83 81 196 144 90 50 112 55 112 26 0 -10 21 -6
84 16 86 30 194 57 231 57 11 1 67 -5 125 -12z m2307 -191 c61 -28 145 -102
178 -160 49 -84 71 -387 41 -547 -25 -132 -104 -329 -175 -438 -73 -113 -211
-216 -318 -236 -32 -6 -32 -6 -27 27 6 46 40 616 59 999 9 173 18 325 20 336
4 20 35 38 80 47 34 6 88 -4 142 -28z"/>
<path d="M2370 4479 c-128 -60 -194 -139 -193 -230 1 -55 19 -94 69 -142 107
-104 380 -188 754 -234 183 -22 729 -25 920 -5 534 57 832 177 875 355 l7 27
-90 0 c-69 0 -92 -4 -103 -16 -36 -43 -210 -109 -380 -143 -641 -129 -1620
-57 -1859 137 l-25 20 23 25 c13 14 50 37 83 52 32 14 59 29 59 33 0 22 -55
152 -64 152 -6 0 -40 -14 -76 -31z"/>
</g>
</svg>
