<svg xmlns="http://www.w3.org/2000/svg" width="202" height="202" fill="none">
  <path fill="#fff" fill-opacity=".4" d="M71.24 13.178 41.479 42.876 16.192 17.59l-8.947 8.947L41.479 60.77l29.76-29.76L101 60.77l29.761-29.76 29.761 29.76 34.234-34.234-8.947-8.947-25.287 25.288-29.761-29.699L101 42.876 71.24 13.178Z"/>
  <path fill="#fff" fill-opacity=".4" d="m71.24 55.862-29.761 29.76-25.287-25.349-8.947 8.947 34.234 34.234 29.76-29.76L101 103.454l29.761-29.76 29.761 29.76 34.234-34.234-8.947-8.947-25.287 25.288-29.761-29.7L101 85.624 71.24 55.862Z"/>
  <path fill="#fff" fill-opacity=".4" d="m71.24 98.546-29.761 29.761-25.287-25.35-8.947 8.947 34.234 34.234 29.76-29.761L101 146.138l29.761-29.761 29.761 29.761 34.234-34.234-8.947-8.947-25.287 25.287-29.761-29.698L101 128.244 71.24 98.546Z"/>
  <path fill="#fff" fill-opacity=".4" d="m71.24 141.23-29.761 29.698-25.287-25.287-8.947 8.947 34.234 34.234 29.76-29.761L101 188.822l29.761-29.761 29.761 29.761 34.234-34.234-8.947-8.947-25.287 25.287-29.761-29.698L101 170.928 71.24 141.23Z"/>
</svg>
