<svg width="202" height="202" viewBox="0 0 202 202" fill="none" xmlns="http://www.w3.org/2000/svg">
<g clip-path="url(#clip0_354_44)">
<path d="M190.778 179.556C184.58 179.556 179.556 184.58 179.556 190.778C179.556 196.976 184.58 202 190.778 202C196.976 202 202 196.976 202 190.778C202 184.58 196.976 179.556 190.778 179.556Z" fill="#1B253F"/>
<path d="M190.778 134.667C184.58 134.667 179.556 139.691 179.556 145.889C179.556 152.087 184.58 157.111 190.778 157.111C196.976 157.111 202 152.087 202 145.889C202 139.691 196.976 134.667 190.778 134.667Z" fill="#1B253F"/>
<path d="M190.778 89.7777C184.58 89.7777 179.556 94.8021 179.556 101C179.556 107.198 184.58 112.222 190.778 112.222C196.976 112.222 202 107.198 202 101C202 94.8021 196.976 89.7777 190.778 89.7777Z" fill="#1B253F"/>
<path d="M190.778 44.8889C184.58 44.8889 179.556 49.9133 179.556 56.1112C179.556 62.309 184.58 67.3334 190.778 67.3334C196.976 67.3334 202 62.309 202 56.1111C202 49.9133 196.976 44.8889 190.778 44.8889Z" fill="#1B253F"/>
<path d="M190.778 2.57766e-05C184.58 2.63184e-05 179.556 5.02438 179.556 11.2222C179.556 17.4201 184.58 22.4445 190.778 22.4445C196.976 22.4445 202 17.4201 202 11.2222C202 5.02438 196.976 2.52348e-05 190.778 2.57766e-05Z" fill="#1B253F"/>
<path d="M145.889 181.8C140.931 181.8 136.911 185.82 136.911 190.778C136.911 195.736 140.931 199.756 145.889 199.756C150.847 199.756 154.867 195.736 154.867 190.778C154.867 185.82 150.847 181.8 145.889 181.8Z" fill="#1B253F"/>
<path d="M145.889 136.911C140.931 136.911 136.911 140.931 136.911 145.889C136.911 150.847 140.931 154.867 145.889 154.867C150.847 154.867 154.867 150.847 154.867 145.889C154.867 140.931 150.847 136.911 145.889 136.911Z" fill="#1B253F"/>
<path d="M145.889 92.0222C140.931 92.0222 136.911 96.0417 136.911 101C136.911 105.958 140.931 109.978 145.889 109.978C150.847 109.978 154.867 105.958 154.867 101C154.867 96.0417 150.847 92.0222 145.889 92.0222Z" fill="#1B253F"/>
<path d="M145.889 47.1333C140.931 47.1333 136.911 51.1528 136.911 56.1111C136.911 61.0694 140.931 65.0889 145.889 65.0889C150.847 65.0889 154.867 61.0694 154.867 56.1111C154.867 51.1528 150.847 47.1333 145.889 47.1333Z" fill="#1B253F"/>
<path d="M145.889 2.24441C140.931 2.24441 136.911 6.26389 136.911 11.2222C136.911 16.1805 140.931 20.2 145.889 20.2C150.847 20.2 154.867 16.1805 154.867 11.2222C154.867 6.26389 150.847 2.24441 145.889 2.24441Z" fill="#1B253F"/>
<path d="M101 184.044C97.2813 184.044 94.2667 187.059 94.2667 190.778C94.2667 194.496 97.2813 197.511 101 197.511C104.719 197.511 107.733 194.496 107.733 190.778C107.733 187.059 104.719 184.044 101 184.044Z" fill="#1B253F"/>
<path d="M101 139.156C97.2813 139.156 94.2667 142.17 94.2667 145.889C94.2667 149.608 97.2813 152.622 101 152.622C104.719 152.622 107.733 149.608 107.733 145.889C107.733 142.17 104.719 139.156 101 139.156Z" fill="#1B253F"/>
<path d="M101 94.2667C97.2813 94.2667 94.2667 97.2814 94.2667 101C94.2667 104.719 97.2813 107.733 101 107.733C104.719 107.733 107.733 104.719 107.733 101C107.733 97.2813 104.719 94.2667 101 94.2667Z" fill="#1B253F"/>
<path d="M101 49.3778C97.2813 49.3778 94.2667 52.3924 94.2667 56.1111C94.2667 59.8299 97.2813 62.8445 101 62.8445C104.719 62.8445 107.733 59.8299 107.733 56.1111C107.733 52.3924 104.719 49.3778 101 49.3778Z" fill="#1B253F"/>
<path d="M101 4.48889C97.2813 4.48889 94.2667 7.50351 94.2667 11.2222C94.2667 14.9409 97.2813 17.9556 101 17.9556C104.719 17.9556 107.733 14.9409 107.733 11.2222C107.733 7.50351 104.719 4.48889 101 4.48889Z" fill="#1B253F"/>
<path d="M56.1112 186.289C53.6321 186.289 51.6223 188.299 51.6223 190.778C51.6223 193.257 53.6321 195.267 56.1112 195.267C58.5903 195.267 60.6001 193.257 60.6001 190.778C60.6001 188.299 58.5903 186.289 56.1112 186.289Z" fill="#1B253F"/>
<path d="M56.1112 141.4C53.6321 141.4 51.6223 143.41 51.6223 145.889C51.6223 148.368 53.6321 150.378 56.1112 150.378C58.5903 150.378 60.6001 148.368 60.6001 145.889C60.6001 143.41 58.5903 141.4 56.1112 141.4Z" fill="#1B253F"/>
<path d="M56.1112 96.5111C53.6321 96.5111 51.6223 98.5209 51.6223 101C51.6223 103.479 53.6321 105.489 56.1112 105.489C58.5903 105.489 60.6001 103.479 60.6001 101C60.6001 98.5209 58.5903 96.5111 56.1112 96.5111Z" fill="#1B253F"/>
<path d="M56.1112 51.6222C53.6321 51.6222 51.6223 53.6319 51.6223 56.1111C51.6223 58.5902 53.6321 60.6 56.1112 60.6C58.5903 60.6 60.6001 58.5902 60.6001 56.1111C60.6001 53.6319 58.5903 51.6222 56.1112 51.6222Z" fill="#1B253F"/>
<path d="M56.1112 6.73327C53.6321 6.73327 51.6223 8.74302 51.6223 11.2222C51.6223 13.7013 53.6321 15.7111 56.1112 15.7111C58.5903 15.7111 60.6001 13.7013 60.6001 11.2222C60.6001 8.74302 58.5903 6.73327 56.1112 6.73327Z" fill="#1B253F"/>
<path d="M11.2223 188.533C9.98278 188.533 8.9779 189.538 8.9779 190.778C8.9779 192.017 9.98278 193.022 11.2224 193.022C12.4619 193.022 13.4668 192.017 13.4668 190.778C13.4668 189.538 12.4619 188.533 11.2223 188.533Z" fill="#1B253F"/>
<path d="M11.2223 143.644C9.98278 143.644 8.9779 144.649 8.9779 145.889C8.9779 147.128 9.98278 148.133 11.2224 148.133C12.4619 148.133 13.4668 147.128 13.4668 145.889C13.4668 144.649 12.4619 143.644 11.2223 143.644Z" fill="#1B253F"/>
<path d="M11.2223 98.7556C9.98278 98.7556 8.9779 99.7605 8.9779 101C8.9779 102.24 9.98278 103.245 11.2224 103.245C12.4619 103.245 13.4668 102.24 13.4668 101C13.4668 99.7605 12.4619 98.7556 11.2223 98.7556Z" fill="#1B253F"/>
<path d="M11.2223 53.8667C9.98278 53.8667 8.9779 54.8716 8.9779 56.1111C8.9779 57.3507 9.98278 58.3556 11.2224 58.3556C12.4619 58.3556 13.4668 57.3507 13.4668 56.1111C13.4668 54.8716 12.4619 53.8667 11.2223 53.8667Z" fill="#1B253F"/>
<path d="M11.2223 8.97778C9.98278 8.97778 8.9779 9.98266 8.9779 11.2222C8.9779 12.4618 9.98278 13.4667 11.2224 13.4667C12.4619 13.4667 13.4668 12.4618 13.4668 11.2222C13.4668 9.98266 12.4619 8.97778 11.2223 8.97778Z" fill="#1B253F"/>
</g>
<defs>
<clipPath id="clip0_354_44">
<rect width="202" height="202" fill="white" transform="translate(202 202) rotate(180)"/>
</clipPath>
</defs>
</svg>
