<svg xmlns="http://www.w3.org/2000/svg" aria-hidden="true" style="position:absolute;width:0;height:0;overflow:hidden">
  <defs>
    <symbol id="icon-arrow" viewBox="0 0 32 32">
      <path d="m2.026 8.294-1.999 2L16 26.267l15.974-15.973-4.027-4.027-11.946 11.947-5.96-5.96c-3.278-3.279-5.973-5.96-5.987-5.96s-.926.899-2.026 2z"/>
    </symbol>
    <symbol id="icon-burger" viewBox="0 0 32 32">
      <path d="M6.4 11.734V9.6h19.2v2.134H6.4zm0 5.332h19.2v-2.133H6.4v2.133zm0 5.334h19.2v-2.134H6.4V22.4z"/>
    </symbol>
    <symbol id="icon-close" viewBox="0 0 32 32">
      <path d="M23.734 10.304 22.23 8.8l-5.963 5.962L10.305 8.8l-1.504 1.504 5.962 5.962-5.962 5.963 1.504 1.504 5.962-5.963 5.963 5.963 1.504-1.504-5.963-5.963 5.963-5.962z"/>
    </symbol>
    <symbol id="icon-facebook" viewBox="0 0 32 32">
      <path d="M16 0A15.997 15.997 0 0 0 0 16a15.997 15.997 0 0 0 16 16 16.003 16.003 0 0 0 16-16A16.003 16.003 0 0 0 16 0zm1.968 6.978c.862.012 1.721.088 2.572.226v2.844h-1.445c-1.426 0-1.872.892-1.872 1.806v2.167h3.186l-.51 3.342H17.22l.003 8.076h-3.59v-8.076h-2.916v-3.342h2.913v-2.545c0-2.898 1.715-4.498 4.339-4.498z"/>
    </symbol>
    <symbol id="icon-fourZigzags" viewBox="0 0 32 32">
      <path d="M11.285 2.088 6.57 6.793 2.564 2.787 1.147 4.204 6.57 9.627l4.715-4.715L16 9.627l4.715-4.715 4.715 4.715 5.423-5.423-1.417-1.417-4.006 4.006-4.715-4.705L16 6.793l-4.715-4.705z"/>
      <path d="M11.285 8.849 6.57 13.564 2.564 9.548l-1.417 1.417 5.423 5.423 4.715-4.715L16 16.388l4.715-4.715 4.715 4.715 5.423-5.423-1.417-1.417-4.006 4.006-4.715-4.705L16 13.564l-4.715-4.715z"/>
      <path d="M11.285 15.611 6.57 20.326 2.564 16.31l-1.417 1.417L6.57 23.15l4.715-4.715L16 23.15l4.715-4.715 4.715 4.715 5.423-5.423-1.417-1.417-4.006 4.006-4.715-4.705L16 20.316l-4.715-4.705z"/>
      <path d="M11.285 22.373 6.57 27.078l-4.006-4.006-1.417 1.417 5.423 5.423 4.715-4.715L16 29.912l4.715-4.715 4.715 4.715 5.423-5.423-1.417-1.417-4.006 4.006-4.715-4.705L16 27.078l-4.715-4.705z"/>
    </symbol>
    <symbol id="icon-instagram" viewBox="0 0 32 32">
      <path d="M16 0A15.997 15.997 0 0 0 0 16a15.997 15.997 0 0 0 16 16 16.003 16.003 0 0 0 16-16A16.003 16.003 0 0 0 16 0zm0 7.888c2.203 0 2.48.009 3.344.049a5.94 5.94 0 0 1 1.969.376 4.156 4.156 0 0 1 2.372 2.372c.236.629.363 1.293.376 1.965.04.865.049 1.142.049 3.344s-.009 2.48-.049 3.344a5.94 5.94 0 0 1-.376 1.969 4.156 4.156 0 0 1-2.372 2.372 5.948 5.948 0 0 1-1.965.381c-.865.04-1.142.049-3.344.049s-2.48-.009-3.344-.049a5.94 5.94 0 0 1-1.969-.376 4.156 4.156 0 0 1-2.372-2.372 5.948 5.948 0 0 1-.381-1.965c-.04-.865-.049-1.142-.049-3.344s.009-2.48.049-3.344a5.94 5.94 0 0 1 .376-1.969 4.148 4.148 0 0 1 2.373-2.377 5.917 5.917 0 0 1 1.965-.376c.869-.04 1.146-.049 3.349-.049z"/>
      <path d="M16 9.35c-2.163 0-2.423.009-3.274.048a4.493 4.493 0 0 0-1.509.277 2.68 2.68 0 0 0-1.542 1.542 4.506 4.506 0 0 0-.278 1.506c-.039.854-.048 1.112-.048 3.274s.009 2.423.048 3.274c.005.516.099 1.028.278 1.512a2.68 2.68 0 0 0 1.542 1.542c.483.178.992.272 1.506.278.854.039 1.112.048 3.274.048s2.423-.009 3.274-.048a4.486 4.486 0 0 0 1.512-.278 2.68 2.68 0 0 0 1.542-1.542c.178-.483.272-.992.278-1.506.039-.854.048-1.112.048-3.274s-.009-2.423-.048-3.274a4.486 4.486 0 0 0-.278-1.512 2.68 2.68 0 0 0-1.542-1.542 4.505 4.505 0 0 0-1.506-.277h-.003C18.42 9.359 18.162 9.35 16 9.35zm4.33 1.347a.977.977 0 0 1 .9.601.973.973 0 1 1-.899-.6zM16 11.834a4.165 4.165 0 0 1 2.946 7.114c-.583.583-1.325.98-2.134 1.14s-1.646.078-2.408-.237a4.164 4.164 0 0 1-2.572-3.85 4.179 4.179 0 0 1 1.22-2.947 4.155 4.155 0 0 1 2.947-1.22z"/>
      <path d="M16 18.704a2.702 2.702 0 0 0 2.652-3.233 2.706 2.706 0 0 0-5.358.527 2.711 2.711 0 0 0 2.705 2.705z"/>
    </symbol>
    <symbol id="icon-largeCoffee" viewBox="0 0 41 32">
      <path d="M17.53 16.043c0 8.769-.824 12.079-6.591 14.438-1.716.702.437-2.976-1.812-7.797-.466-.999-4.151-12.03-4.151-13.03 0-6.859 2.096-6.835 1.877-8.831-.105-.952 1.288-.202 1.926.136 5.384 2.852 8.752 6.315 8.752 15.084z"/>
      <path d="M3.112 7.442c-.313 6.383 2.355 9.896 3.295 13.398 1.81 6.742 2.731 10.785-1.414 10.785-6.231 0-11.282-7.109-11.282-15.878S-2.526 1.482 3.534.035C4.385-.168 5 .546 4.993 1.349c-.012 1.241-1.646 1.334-1.88 6.093zM36.413 33.695c-5.237 7.034-7.875 9.196-13.909 7.644-1.795-.462 2.128-2.126 3.203-7.336.223-1.079 3.854-12.128 4.452-12.931 4.096-5.501 5.763-4.231 6.779-5.962.485-.826 1.154.607 1.464 1.259 2.615 5.503 3.249 10.292-1.989 17.326z"/>
      <path d="M29.985 18.186c-4.063 4.932-4.021 9.344-5.359 12.714-2.575 6.489-4.25 10.281-7.575 7.806-4.998-3.721-4.804-12.44.433-19.473s11.537-9.195 17.262-6.736c.804.345.871 1.285.385 1.925-.75.988-2.117.086-5.147 3.764z"/>
    </symbol>
    <symbol id="icon-linkedIn" viewBox="0 0 32 32">
      <path d="M16 0A15.997 15.997 0 0 0 0 16a15.997 15.997 0 0 0 16 16 16.003 16.003 0 0 0 16-16A16.003 16.003 0 0 0 16 0zm-5.178 7.69a1.797 1.797 0 0 1 1.267.525 1.806 1.806 0 0 1 .524 1.267 1.792 1.792 0 1 1-2.478-1.654c.217-.09.45-.136.686-.136zm9.016 4.777c.145-.011.292-.011.441.001 3.185 0 3.684 2.091 3.684 4.779l.1 5.376h-3.087v-4.879c0-1.2.002-2.688-1.592-2.688s-1.892 1.295-1.892 2.59v4.977h-3.085v-9.956h2.986v1.395c.524-.874 1.43-1.516 2.446-1.595zm-10.51.2h3.087v9.956H9.328v-9.956z"/>
    </symbol>
    <symbol id="icon-logo" viewBox="0 0 140 32" fill="#ffff">
      <path d="M3.484 26.475c0-.238.051-.569.154-.993.102-.435.241-.771.415-1.009l1.214-1.738c.369-.528.697-.983.984-1.366.287-.383.574-.724.861-1.024 1.752-1.914 3.007-3.342 3.766-4.283.758-.952 1.137-1.614 1.137-1.986a.635.635 0 0 0-.338-.574c-.225-.145-.523-.217-.891-.217-.758 0-1.711.274-2.859.822-1.148.538-2.49 1.242-4.027 2.111-1.527.869-2.377 1.304-2.551 1.304-.277 0-.415-.202-.415-.605 0-.341.108-.828.323-1.459.164-.683.297-1.21.4-1.583.102-.383.272-.724.507-1.024.246-.3.646-.626 1.199-.978.564-.352 1.424-.833 2.582-1.443l.154.574c.963-.393 1.87-.693 2.721-.9.861-.207 1.593-.31 2.198-.31 1.189 0 2.029.207 2.521.621.502.404.753 1.288.753 2.654 0 .745-.108 1.366-.323 1.862s-.635 1.19-1.26 2.08c-1.424 2.09-2.495 3.538-3.212 4.345-2.08 2.4-3.12 3.802-3.12 4.206 0 .228.149.341.446.341.246 0 .594-.176 1.045-.528s.994-.859 1.629-1.521c.635-.662 1.517-1.609 2.644-2.84a87.833 87.833 0 0 0 3.028-3.445 78.823 78.823 0 0 0 2.044-2.561c.533-.714.815-1.097.845-1.148.553-.683 1.122-1.242 1.706-1.676.594-.445.974-.667 1.137-.667.123 0 .266.114.43.341s.302.497.415.807c.123.31.184.548.184.714 0 .052-.123.305-.369.76-.246.445-.512.91-.799 1.397-.287.476-.748 1.21-1.383 2.204-1.394 2.183-2.459 4.019-3.197 5.509-.738 1.479-1.107 2.452-1.107 2.918 0 .166.056.321.169.466.123.134.246.202.369.202.164 0 .461-.129.891-.388.43-.269.907-.652 1.43-1.148.687-.662 1.312-1.35 1.875-2.064s1.122-1.511 1.675-2.39c.553-.879 1.045-1.712 1.476-2.498s.866-1.614 1.306-2.483l-.261-.791a1.569 1.569 0 0 1-.061-.481c0-.155.302-.657.907-1.505.605-.859 1.004-1.288 1.199-1.288.215 0 .395.16.538.481.154.31.231.626.231.947 0 .352-.159 1.055-.476 2.111-.307 1.045-.794 2.312-1.46 3.802a34.788 34.788 0 0 1-2.444 4.547c-.84 1.345-1.742 2.498-2.705 3.461-.953.952-1.814 1.661-2.582 2.126s-1.337.698-1.706.698c-.42 0-.861-.186-1.322-.559-.379-.331-.651-.626-.815-.885-.154-.269-.256-.559-.307-.869s-.077-.672-.077-1.086c0-.879.241-1.909.722-3.088s1.199-2.649 2.152-4.407c-2.982 3.662-5.293 6.327-6.932 7.992-1.629 1.666-2.823 2.498-3.581 2.498-.502 0-.927-.3-1.276-.9-.348-.61-.523-1.34-.523-2.188zM34.624 24.07v1.04c-.676.621-1.219 1.035-1.629 1.241s-.999.29-1.768.248c-1.332 1.593-2.505 2.39-3.52 2.39-.574 0-1.096-.191-1.568-.574s-.851-.905-1.137-1.567c-.277-.662-.415-1.402-.415-2.219 0-.662.215-1.397.646-2.204a10.007 10.007 0 0 1 1.691-2.25 9.468 9.468 0 0 1 2.229-1.692c.789-.434 1.522-.652 2.198-.652.482 0 .861.078 1.137.233.277.145.415.352.415.621 0 .207-.118.445-.354.714.389.083.656.222.799.419.143.186.215.533.215 1.04 0 .497-.118 1.122-.354 1.878a9.143 9.143 0 0 1-.938 2.126l.277.279h.231c.174 0 .343-.041.507-.124.174-.093.328-.186.461-.279.133-.104.425-.326.876-.667zm-3.166-4.082c-.851.517-1.578.988-2.183 1.412a9.897 9.897 0 0 0-1.537 1.273c-.42.424-.702.854-.845 1.288-.256 1.159-.384 1.785-.384 1.878 0 .683.471 1.024 1.414 1.024.441 0 1.178-.383 2.213-1.148a4.142 4.142 0 0 1-.261-1.397c0-.652.133-1.314.4-1.986.266-.683.661-1.464 1.183-2.343z"/>
      <path d="M34.44 25.296v-1.009c.553-.662.973-1.226 1.26-1.692-.328-.114-.569-.253-.722-.419-.143-.166-.215-.414-.215-.745 0-.372.154-.843.461-1.412s.687-1.102 1.137-1.598c.451-.497.861-.817 1.23-.962a.925.925 0 0 1 .415-.109c.205 0 .307.098.307.295 0 .176-.159.533-.476 1.071 2.111-.331 3.443-.497 3.996-.497.215 0 .364.021.446.062.174.093.318.31.43.652s.169.683.169 1.024c0 .217-.097.455-.292.714-.184.248-.507.616-.968 1.102-.543.59-.999 1.231-1.368 1.924s-.553 1.216-.553 1.567c0 .486.297.729.891.729.625 0 1.711-.641 3.258-1.924v1.04c-.85.9-1.552 1.609-2.106 2.126s-1.066.931-1.537 1.241c-.471.3-.891.45-1.26.45-.43 0-.789-.197-1.076-.59-.287-.403-.43-.983-.43-1.738 0-.445.113-.952.338-1.521s.553-1.185.984-1.847c.441-.672.932-1.34 1.476-2.002-.287.062-.61.129-.968.202-.359.062-.738.129-1.137.202s-.707.129-.922.171c-.635 1.283-1.558 2.447-2.767 3.492z"/>
      <path d="M55.374 24.101v1.04c-1.148 1.355-2.111 2.385-2.89 3.088-.779.693-1.429 1.04-1.952 1.04-.502 0-.958-.15-1.368-.45-.4-.3-.763-.714-1.091-1.241-.318-.528-.697-1.262-1.137-2.204a57.845 57.845 0 0 0-1.414 1.831c-.42.559-.712.931-.876 1.117s-.313.279-.446.279c-.277 0-.477-.176-.599-.528-.123-.362-.184-.885-.184-1.567 0-.931.108-1.826.323-2.685.225-.869.543-1.712.953-2.53.42-.817.953-1.697 1.599-2.638a61.163 61.163 0 0 1 2.198-2.98c1.117-1.428 2.08-2.592 2.89-3.492.809-.91 1.511-1.593 2.106-2.049.605-.466 1.107-.698 1.506-.698.492 0 .738.222.738.667 0 .383-.907 1.764-2.721 4.144-1.814 2.369-4.457 5.607-7.931 9.715v1.335c2.326-2.514 4.196-4.381 5.61-5.602 1.424-1.221 2.526-1.831 3.305-1.831.318 0 .564.191.738.574.174.372.261.807.261 1.304 0 1.014-.43 1.955-1.291 2.824-.861.859-2.183 1.847-3.966 2.964.307.466.579.807.815 1.024.236.207.533.31.891.31.318 0 .661-.109 1.03-.326s.743-.491 1.122-.822c.389-.331.984-.869 1.783-1.614zm-6.071.791c.389-.259.871-.657 1.445-1.195a11.194 11.194 0 0 0 1.491-1.692c.41-.59.615-1.081.615-1.474 0-.166-.072-.248-.215-.248-.389 0-1.061.378-2.014 1.133-.943.755-1.865 1.723-2.767 2.902.389 0 .871.191 1.445.574zM101.221 30.774c-.122 0-.307-.067-.553-.202a13.591 13.591 0 0 1-1.046-.698c-.451-.321-.963-.678-1.537-1.071L89.77 23.17l-2.46 3.274c0 .279-.035.491-.107.636-.072.134-.225.326-.461.574-.563.59-1.045 1.04-1.445 1.35-.39.31-.743.466-1.061.466a.505.505 0 0 1-.399-.202.665.665 0 0 1-.169-.466c0-.248.143-.579.431-.993l4.503-5.649c-.266-.424-.399-.859-.399-1.304 0-.455.123-.843.369-1.164.256-.321.548-.579.877-.776s1.235-.693 2.72-1.49c2.111-2.824 3.167-4.407 3.167-4.749 0-.228-.134-.341-.399-.341-.277 0-.892.165-1.845.497-.943.331-2.188.843-3.735 1.536-1.537.683-3.361 1.562-5.472 2.638a1.141 1.141 0 0 1-.599.124.878.878 0 0 1-.554-.264c-.154-.166-.23-.383-.23-.652 0-.083.02-.181.061-.295.031-.114.087-.29.169-.528l.215-.652c.021-.062.067-.285.138-.667a3.44 3.44 0 0 1 .4-1.04c.184-.321.497-.672.938-1.055.451-.383 1.091-.786 1.921-1.21.154-.093.298-.15.431-.171.134-.031.2.005.2.109 0 .031-.154.16-.461.388-.297.217-.625.579-.984 1.086 2.993-1.055 5.195-1.795 6.609-2.219 1.425-.434 2.567-.652 3.427-.652.472 0 .866.326 1.184.978.317.641.477 1.06.477 1.257 0 .29-.113.616-.338.978l-2.46 3.724a228.025 228.025 0 0 0 4.534-2.312c1.087-.579 2.265-1.205 3.535-1.878a103.446 103.446 0 0 1 2.413-1.273c.338-.176.559-.264.661-.264.236 0 .353.109.353.326 0 .124-.179.466-.538 1.024a9.409 9.409 0 0 1-1.168 1.49c-.431.434-.789.652-1.076.652a.892.892 0 0 1-.261-.047 5.859 5.859 0 0 0-.292-.109c-1.384.724-3.08 1.583-5.088 2.576a485.234 485.234 0 0 1-4.734 2.328l-1.322 2.002 7.793 5.338c.717.486 1.235.874 1.553 1.164.328.29.568.605.722.947.164.341.246.771.246 1.288 0 .848-.179 1.273-.538 1.273z"/>
      <path d="M104.833 21.323c1.558-1.428 3.069-2.488 4.534-3.181s2.598-1.04 3.397-1.04c.215 0 .415.093.599.279.184.176.328.383.431.621.113.238.169.414.169.528a.467.467 0 0 1-.215.419c-.144.083-.394.186-.753.31l.277.636c.113.258.2.471.261.636.062.155.093.295.093.419 0 .248-.251.714-.753 1.397-.492.672-.84 1.169-1.045 1.49-.195.321-.292.714-.292 1.179 0 .766.349 1.148 1.045 1.148.718 0 1.839-.678 3.366-2.033v.947c-2.592 2.907-4.447 4.361-5.564 4.361-.4 0-.687-.135-.861-.404-.164-.259-.246-.647-.246-1.164 0-.817.292-2.002.876-3.554-1.496 1.676-2.607 2.871-3.335 3.585-.728.704-1.327 1.055-1.798 1.055-.225 0-.507-.197-.845-.59s-.641-.9-.907-1.521a5.155 5.155 0 0 1-.384-1.955c0-.486.046-.89.138-1.21.093-.331.272-.667.538-1.009s.691-.791 1.276-1.35zm7.362-1.707c-2.664 1.231-4.565 2.276-5.702 3.135-1.127.859-1.691 1.743-1.691 2.654 0 .331.056.605.169.822.113.207.266.31.461.31.113 0 .313-.072.6-.217 1.076-.641 2.06-1.474 2.951-2.498.892-1.035 1.962-2.436 3.213-4.206z"/>
      <path d="m117.821 24.132-.277 1.304a2.335 2.335 0 0 0-.061.559c0 .559.23.838.691.838.44 0 1.512-.869 3.213-2.607.01-.672.256-1.448.737-2.328.492-.879 1.03-1.65 1.614-2.312.595-.662 1.035-.993 1.322-.993.451 0 .677.3.677.9 0 .362-.088.807-.262 1.335a10.41 10.41 0 0 1-.769 1.692c-.338.6-.753 1.221-1.245 1.862.256.466.518.698.783.698.226 0 .472-.078.738-.233.277-.166.62-.414 1.03-.745v1.04c-.573.455-1.03.766-1.368.931-.328.166-.753.248-1.276.248-.205 0-.574-.14-1.107-.419-1.045 1.117-1.896 1.955-2.551 2.514-.656.548-1.189.823-1.599.823-.707 0-1.312-.424-1.814-1.273a5.581 5.581 0 0 1-.737-2.824c0-1.376.769-3.026 2.305-4.951.461-.579.83-.972 1.107-1.179.287-.217.609-.326.968-.326.307 0 .6.057.876.171s.415.248.415.404c0 .517-.344 1.278-1.03 2.281a12.475 12.475 0 0 1-2.383 2.592z"/>
      <path d="M127.781 21.323c1.558-1.428 3.069-2.488 4.534-3.181s2.598-1.04 3.397-1.04c.215 0 .415.093.6.279.184.176.328.383.43.621.113.238.17.414.17.528a.466.466 0 0 1-.216.419c-.143.083-.394.186-.753.31l.276.636c.113.258.2.471.262.636.061.155.093.295.093.419 0 .248-.251.714-.753 1.397-.492.672-.84 1.169-1.045 1.49-.195.321-.292.714-.292 1.179 0 .766.349 1.148 1.045 1.148.717 0 1.839-.678 3.366-2.033v.947c-2.593 2.907-4.447 4.361-5.564 4.361-.4 0-.687-.135-.861-.404-.163-.259-.246-.647-.246-1.164 0-.817.292-2.002.876-3.554-1.496 1.676-2.608 2.871-3.335 3.585-.728.704-1.327 1.055-1.798 1.055-.226 0-.508-.197-.846-.59s-.64-.9-.906-1.521a5.137 5.137 0 0 1-.385-1.955c0-.486.047-.89.138-1.21.093-.331.271-.667.538-1.009s.692-.791 1.276-1.35zm7.363-1.707c-2.664 1.231-4.566 2.276-5.703 3.135-1.127.859-1.69 1.743-1.69 2.654 0 .331.056.605.169.822.113.207.266.31.461.31.113 0 .312-.072.6-.217 1.075-.641 2.059-1.474 2.951-2.498.891-1.035 1.962-2.436 3.213-4.206zM71.008 8.847l-.115.852c1.668.229 2.998.665 3.798 1.159.4.247.661.509.785.732s.141.39.058.609c-.167.438-.911 1.017-2.111 1.433s-2.811.693-4.593.744c-1.781.052-3.495-.128-4.873-.474s-2.415-.883-2.835-1.39c-.21-.254-.259-.446-.234-.637s.142-.416.411-.664c.539-.496 1.652-1.008 3.195-1.328l-.171-.842c-1.632.339-2.86.853-3.6 1.534-.37.341-.625.739-.682 1.19s.104.912.426 1.301c.644.777 1.813 1.304 3.283 1.673s3.25.555 5.104.501c1.854-.054 3.533-.34 4.842-.793s2.294-1.049 2.634-1.94c.17-.446.115-.938-.113-1.344s-.603-.742-1.085-1.039c-.963-.595-2.378-1.036-4.127-1.276z"/>
      <path d="M63.215 10.584c-.402.148-.717.311-.959.517s-.429.493-.414.824c.015.331.216.598.469.796s.58.356.993.501c1.651.581 4.361.794 6.867.578 1.254-.108 2.309-.314 3.085-.593.388-.14.708-.295.959-.495s.46-.477.46-.824h-.853c0-.01.003.039-.134.148s-.386.243-.719.363c-.666.24-1.667.441-2.869.544-2.403.207-5.09-.03-6.517-.532-.357-.126-.61-.26-.749-.369s-.141-.167-.14-.157c.001.01-.013-.022.11-.126s.36-.239.703-.366l-.292-.809z"/>
      <path d="M60.079 11.872c2.227 3.399 12.785 3.878 16.353.149-.342 5.669-.634 16.411-1.608 16.763-4.517 1.64-7.99 2.278-12.937.014-1.305-.591-1.45-11.083-1.846-16.753l.037-.174zM66.589.941l-.679.52c.534.714.708 1.379.673 2.069s-.298 1.417-.707 2.168l.024-.04c-.781 1.122-.856 2.175-.688 3.084s.52 1.694.612 2.457l.847-.105c-.114-.939-.48-1.74-.621-2.509s-.112-1.483.548-2.432l.012-.018.012-.022c.445-.817.768-1.66.813-2.537s-.208-1.781-.847-2.635zM68.596.941l-.679.52c.534.714.708 1.379.673 2.069s-.298 1.417-.707 2.168l.024-.04c-.781 1.122-.856 2.175-.688 3.084s.52 1.694.612 2.457l.847-.105c-.114-.939-.48-1.74-.621-2.509s-.112-1.483.548-2.432l.012-.018.012-.022c.445-.817.768-1.66.813-2.537s-.208-1.781-.847-2.635zM70.603.941l-.679.52c.534.714.708 1.379.673 2.069s-.298 1.417-.707 2.168l.024-.04c-.78 1.122-.855 2.175-.688 3.084s.52 1.694.612 2.457l.849-.105c-.113-.939-.483-1.74-.624-2.509s-.112-1.483.548-2.432l.015-.018.009-.022c.445-.817.769-1.66.813-2.537s-.208-1.781-.847-2.635z"/>
      <path d="M77.458 14.609c-.514-.145-1.096-.157-1.635.095s-.982.763-1.23 1.448l1.318.489c.15-.415.325-.57.499-.652s.401-.094.67-.018c.535.151 1.103.728 1.203 1.085.466 2.165-.02 3.209-.606 4.437-.593 1.019-1.147 1.225-1.846 1.454-.687.226-1.057.911-.984 1.574s.689 1.287 1.51 1.384l.161-1.408c-.346-.041-.273-.094-.277-.129s.017-.071.024-.074c.783-.257 1.853-.742 2.634-2.097l.015-.025.013-.025c.609-1.275 1.279-2.885.725-5.424l-.003-.015-.003-.015c-.276-1.036-1.161-1.794-2.19-2.085z"/>
    </symbol>
    <symbol id="icon-phone" viewBox="0 0 32 32">
      <path d="M23 0H9C7.35 0 6 1.35 6 3v26c0 1.65 1.35 3 3 3h14c1.65 0 3-1.35 3-3V3c0-1.65-1.35-3-3-3zM12 1.5h8v1h-8v-1zM16 30a2 2 0 1 1-.001-3.999A2 2 0 0 1 16 30zm8-6H8V4h16v20z"/>
    </symbol>
    <symbol id="icon-points" viewBox="0 0 32 32">
      <path d="M30.222 28.445a1.778 1.778 0 1 0 0 3.556 1.778 1.778 0 0 0 0-3.556zM30.222 21.333a1.778 1.778 0 1 0 0 3.556 1.778 1.778 0 0 0 0-3.556zM30.222 14.222a1.778 1.778 0 1 0 0 3.556 1.778 1.778 0 0 0 0-3.556zM30.222 7.111a1.778 1.778 0 1 0 0 3.556 1.778 1.778 0 0 0 0-3.556zM30.222 0a1.778 1.778 0 1 0 0 3.556 1.778 1.778 0 0 0 0-3.556zM23.111 28.8a1.422 1.422 0 1 0 0 2.845 1.422 1.422 0 0 0 0-2.845zM23.111 21.689a1.422 1.422 0 1 0 0 2.845 1.422 1.422 0 0 0 0-2.845zM23.111 14.578a1.422 1.422 0 1 0 0 2.845 1.422 1.422 0 0 0 0-2.845zM23.111 7.467a1.422 1.422 0 1 0 0 2.845 1.422 1.422 0 0 0 0-2.845zM23.111.356a1.422 1.422 0 1 0 0 2.845 1.422 1.422 0 0 0 0-2.845zM16 29.155a1.067 1.067 0 1 0 0 2.135 1.067 1.067 0 0 0 0-2.135zM16 22.044a1.067 1.067 0 1 0 0 2.133 1.067 1.067 0 0 0 0-2.133zM16 14.933a1.067 1.067 0 1 0 0 2.135 1.067 1.067 0 0 0 0-2.135zM16 7.822a1.067 1.067 0 1 0 0 2.135 1.067 1.067 0 0 0 0-2.135zM16 .711a1.067 1.067 0 1 0 0 2.135A1.067 1.067 0 0 0 16 .71zM8.889 29.511a.71.71 0 1 0 0 1.421.71.71 0 0 0 0-1.421zM8.889 22.4a.71.71 0 1 0 0 1.421.71.71 0 0 0 0-1.421zM8.889 15.289a.71.71 0 1 0 0 1.421.71.71 0 0 0 0-1.421zM8.889 8.178a.71.71 0 1 0 0 1.421.71.71 0 0 0 0-1.421zM8.889 1.067a.71.71 0 1 0 0 1.421.71.71 0 0 0 0-1.421zM1.778 29.867a.356.356 0 1 0 0 .712.356.356 0 0 0 0-.712zM1.778 22.756a.356.356 0 1 0 0 .712.356.356 0 0 0 0-.712zM1.778 15.644a.356.356 0 1 0 0 .712.356.356 0 0 0 0-.712zM1.778 8.533a.356.356 0 1 0 0 .712.356.356 0 0 0 0-.712zM1.778 1.422a.356.356 0 1 0 0 .712.356.356 0 0 0 0-.712z"/>
    </symbol>
    <symbol id="icon-pointsInvert" viewBox="0 0 32 32">
      <path d="M1.778 3.556a1.778 1.778 0 1 0 0-3.556 1.778 1.778 0 0 0 0 3.556zM1.778 10.667a1.778 1.778 0 1 0 0-3.556 1.778 1.778 0 0 0 0 3.556zM1.778 17.778a1.778 1.778 0 1 0 0-3.556 1.778 1.778 0 0 0 0 3.556zM1.778 24.889a1.778 1.778 0 1 0 0-3.556 1.778 1.778 0 0 0 0 3.556zM1.778 32a1.778 1.778 0 1 0 0-3.556 1.778 1.778 0 0 0 0 3.556zM8.889 3.2a1.422 1.422 0 1 0 0-2.845 1.422 1.422 0 0 0 0 2.845zM8.889 10.311a1.422 1.422 0 1 0 0-2.845 1.422 1.422 0 0 0 0 2.845zM8.889 17.422a1.422 1.422 0 1 0 0-2.845 1.422 1.422 0 0 0 0 2.845zM8.889 24.533a1.422 1.422 0 1 0 0-2.845 1.422 1.422 0 0 0 0 2.845zM8.889 31.645a1.422 1.422 0 1 0 0-2.845 1.422 1.422 0 0 0 0 2.845zM16 2.844a1.067 1.067 0 1 0 0-2.135 1.067 1.067 0 0 0 0 2.135zM16 9.956a1.067 1.067 0 1 0 0-2.135 1.067 1.067 0 0 0 0 2.135zM16 17.067a1.067 1.067 0 1 0 0-2.133 1.067 1.067 0 0 0 0 2.133zM16 24.178a1.067 1.067 0 1 0 0-2.133 1.067 1.067 0 0 0 0 2.133zM16 31.289a1.067 1.067 0 1 0 0-2.135 1.067 1.067 0 0 0 0 2.135zM23.111 2.489a.71.71 0 1 0 0-1.421.71.71 0 0 0 0 1.421zM23.111 9.6a.71.71 0 1 0 0-1.421.71.71 0 0 0 0 1.421zM23.111 16.711a.71.71 0 1 0 0-1.421.71.71 0 0 0 0 1.421zM23.111 23.822a.71.71 0 1 0 0-1.421.71.71 0 0 0 0 1.421zM23.111 30.933a.71.71 0 1 0 0-1.421.71.71 0 0 0 0 1.421zM30.222 2.133a.355.355 0 1 0 0-.71.355.355 0 0 0 0 .71zM30.222 9.244a.355.355 0 1 0 0-.71.355.355 0 0 0 0 .71zM30.222 16.356a.355.355 0 1 0 0-.71.355.355 0 0 0 0 .71zM30.222 23.467a.355.355 0 1 0 0-.71.355.355 0 0 0 0 .71zM30.222 30.578a.355.355 0 1 0 0-.71.355.355 0 0 0 0 .71z"/>
    </symbol>
    <symbol id="icon-potato" viewBox="0 0 36 32">
      <path d="m16.376.316-1.582 1.265c-.218.27-.301.588-.229.957l.778 5.704-2.163-3.208c-.195-.193-.454-.321-.786-.38-.568-.121-1.12-.172-1.642-.097l-.629.173L8.43 5.941c-.438.379-.626.824-.384 1.383l1.24 1.734a.616.616 0 0 0-.087.065L6.85 11.144c-.148.169-.266.346-.315.529a91.447 91.447 0 0 0-2.22-2.299.79.79 0 0 0-.477-.206c-.805-.097-1.697.244-2.243.795L.401 11.169c-.342.387-.524.824-.072 1.254.196.186.412.348.605.524 1.907 1.74 3.435 3.322 4.705 5.061a.932.932 0 0 0-.275.137c-.307.225-.419.611-.273.938.503 1.121 1.174 3.238 1.97 5.749 2.555 8.057 6.351 20.028 11.326 18.938l18.892-4.448c.822-.576 1.044-2.193.855-4.523a3866.41 3866.41 0 0 0-2.35-19.323c-.031-.248-.976 6.286-10.691 10.177-3.495 1.4-10.629 2.199-15.931-.105-.024-.011.125-.171.414-.109 10.363 2.205 14.58-.909 15.507-.876 7.185-2.658 10.961-9.338 10.531-9.766 0 0-.272-2.324-.276-2.531-.011-.436-.399-.77-.866-.745a.895.895 0 0 0-.369.099c.026-2.656.407-4.809 1.698-8.02.097-.243.222-.482.317-.735.22-.583-.133-.898-.608-1.099l-1.599-.568c-.731-.26-1.683-.179-2.366.257-.161.103-.284.232-.339.392a40.055 40.055 0 0 0-.936 3.124c-.117-.189-.332-.324-.58-.429l-2.992-.802a.863.863 0 0 0-.099-.019l.353-2.024c.031-.708-.226-.959-.755-1.115L24.201.209c-.333-.034-.654-.013-.951.103-.28.151-.58.326-.923.51-.249.134-.408.212-.623.402a1.358 1.358 0 0 0-.398.549l-.119.835c-.147 1.022-.261 1.772-.284 2.63L20.393.98c.006-.503-.212-.784-.576-.923l-3.438.258zm-1.092 1.816 3.15-.245c.234 6.639 1.933 14.899 3.825 21.352.045.154-.715-10.515-.759-16.773-.02-2.75.63-4.387.65-4.321.013.042 2.846.468 2.846.468-1.886 3.529-.423 17.076-.097 18.861l-2.622 1.82.402 1.336-2.219.556c-.316-.719-.609-1.374-.883-1.969l-.023-.049a79.016 79.016 0 0 0-1.586-3.183l-.005-.022-.105-.187c-.036-.162-8.657-12.61-8.8-12.709-.499-.348 2.339-1.858 2.875-1.511 1.084.703 3.227 3.66 3.227 3.66s1.117 5.586 1.766 8.098c.602 2.327.74 1.597.732 1.558-1.231-5.616-2.423-12.489-2.373-16.74zM3.461 10.118c4.188 3.813 7.906 7.862 10.17 13.228l-3.285-.323c-1.633-4.118-4.554-8.008-8.472-11.355l1.587-1.55zm6.723-.159c4.187 3.813 6.51 8.93 9.225 14.559l-3.455-.078c-2.007-4.398-3.74-7.991-7.889-12.561l2.119-1.92zm19.674-3.267c-.426 1.912-.885 3.961-1.191 5.985-.344 2.272-.522 4.487-.19 6.499.104.63 2.923-15.815 3.18-17.068.008-.04 3.283 1.062 3.283 1.062-.565 1.391-1.55 5.436-1.815 8.658-.09 1.088-2.901 6.858-2.901 6.858l-1.844.785-.324.721s-2.447 1.177-2.476.978c-.344-2.365-.838-15.693.542-15.802l3.737 1.323z"/>
    </symbol>
    <symbol id="icon-smallCoffee" viewBox="0 0 49 32">
      <path d="M29.549 17.002c0-8.198.771-11.293 6.162-13.498 1.604-.656-.409 2.782 1.694 7.289.436.934 3.881 11.246 3.881 12.182 0 6.412-1.96 6.39-1.755 8.255.098.89-1.204.189-1.801-.127-5.034-2.666-8.182-5.904-8.182-14.102z"/>
      <path d="M43.029 25.042c.293-5.967-2.201-9.252-3.08-12.526-1.692-6.303-2.553-10.082 1.322-10.082 5.825 0 10.547 6.646 10.547 14.844s-3.517 13.336-9.183 14.689c-.795.19-1.371-.477-1.364-1.229.011-1.16 1.539-1.247 1.758-5.696zM11.896.499c4.896-6.576 7.362-8.597 13.004-7.146 1.678.432-1.989 1.987-2.994 6.858-.208 1.009-3.603 11.338-4.162 12.089-3.829 5.143-5.388 3.955-6.338 5.574-.453.772-1.079-.567-1.368-1.177C7.593 11.552 7.001 7.075 11.897.5z"/>
      <path d="M17.906 14.998c3.799-4.611 3.76-8.735 5.01-11.886 2.407-6.066 3.973-9.612 7.082-7.297 4.672 3.479 4.491 11.63-.405 18.205s-10.786 8.596-16.138 6.297c-.751-.323-.814-1.202-.36-1.8.701-.924 1.979-.081 4.812-3.519z"/>
    </symbol>
    <symbol id="icon-telegram" viewBox="0 0 32 32">
      <path d="M16 0A15.997 15.997 0 0 0 0 16a15.997 15.997 0 0 0 16 16 16.003 16.003 0 0 0 16-16A16.003 16.003 0 0 0 16 0zm6.599 9.54c.221-.004.437.061.619.186.128.11.209.264.228.432.032.208.041.419.027.63-.24 2.53-1.28 8.646-1.808 11.472-.223 1.191-.664 1.597-1.091 1.637-.926.085-1.637-.613-2.53-1.201-1.405-.921-2.198-1.488-3.562-2.393-1.576-1.042-.554-1.609.344-2.541.235-.244 4.316-3.959 4.397-4.295a.33.33 0 0 0-.075-.283.372.372 0 0 0-.331-.032c-.14.031-2.383 1.514-6.73 4.449-.637.438-1.214.651-1.731.64-.57-.013-1.665-.323-2.481-.595-.999-.324-1.786-.496-1.724-1.042.037-.286.433-.579 1.188-.88 4.653-2.027 7.755-3.364 9.307-4.01 4.432-1.843 5.358-2.163 5.954-2.175z"/>
    </symbol>
    <symbol id="icon-twitter" viewBox="0 0 32 32">
      <path d="M16 0A15.997 15.997 0 0 0 0 16a15.997 15.997 0 0 0 16 16 16.003 16.003 0 0 0 16-16A16.003 16.003 0 0 0 16 0zm3.937 9.833a3.343 3.343 0 0 1 1.894 1.008 6.689 6.689 0 0 0 2.12-.81 3.356 3.356 0 0 1-1.467 1.847 6.682 6.682 0 0 0 1.917-.526 6.804 6.804 0 0 1-1.665 1.728c.01.143.01.281.01.43 0 4.412-3.358 9.499-9.499 9.499v-.003A9.438 9.438 0 0 1 8.14 21.51a6.675 6.675 0 0 0 4.94-1.383 3.333 3.333 0 0 1-3.125-2.319c.5.097 1.015.077 1.506-.057a3.34 3.34 0 0 1-2.679-3.274v-.042c.464.259.984.402 1.515.418a3.34 3.34 0 0 1-1.033-4.457 9.484 9.484 0 0 0 6.88 3.488 3.347 3.347 0 0 1 .815-3.04 3.338 3.338 0 0 1 2.979-1.014z"/>
    </symbol>
    <symbol id="icon-twoZigzags" viewBox="0 0 59 32">
      <path d="m20.801 3.848-8.69 8.671-7.383-7.383-2.612 2.612 9.996 9.996 8.69-8.69 8.69 8.69 8.69-8.69 8.69 8.69 9.996-9.996-2.612-2.612-7.384 7.383-8.69-8.671-8.69 8.671-8.69-8.671z"/>
      <path d="m20.801 16.311-8.69 8.69-7.383-7.402-2.612 2.612 9.996 9.996 8.69-8.69 8.69 8.69 8.69-8.69 8.69 8.69 9.996-9.996-2.612-2.612-7.384 7.383-8.69-8.671-8.69 8.69-8.69-8.69z"/>
    </symbol>
    <symbol id="icon-user" viewBox="0 0 32 32">
      <path d="M16 16c4.42 0 8-3.58 8-8s-3.58-8-8-8-8 3.58-8 8 3.58 8 8 8zm0 4c-5.34 0-16 2.68-16 8v2c0 1.1.9 2 2 2h28c1.1 0 2-.9 2-2v-2c0-5.32-10.66-8-16-8z"/>
    </symbol>
  </defs>
</svg>
