<svg width="544" height="431" viewBox="0 0 544 431" fill="none" xmlns="http://www.w3.org/2000/svg">
<g clip-path="url(#clip0_170_361)">
<g clip-path="url(#clip1_170_361)">
<path fill-rule="evenodd" clip-rule="evenodd" d="M233.921 218.067C233.921 335.083 222.921 379.247 145.967 410.722C123.073 420.086 151.8 371.015 121.786 306.682C115.57 293.358 66.3902 146.163 66.3902 132.808C66.3902 41.2863 94.3598 41.6011 91.4362 14.9768C90.0409 2.27015 108.621 12.2769 117.136 16.7872C188.982 54.8408 233.921 101.051 233.921 218.067Z" fill="#E2D0AE"/>
<path fill-rule="evenodd" clip-rule="evenodd" d="M41.5314 103.308C37.3497 188.476 72.9491 235.359 85.4938 282.093C109.644 372.061 121.934 426 66.622 426C-16.5207 426 -83.9212 331.14 -83.9212 214.124C-83.9212 97.1088 -33.714 23.7758 47.1554 4.46658C58.5074 1.75604 66.7206 11.2817 66.6195 22.0043C66.4635 38.5585 44.6496 39.8004 41.5314 103.308Z" fill="#E2D0AE"/>
</g>
<g clip-path="url(#clip2_170_361)">
<path fill-rule="evenodd" clip-rule="evenodd" d="M485.888 453.619C416.006 547.476 380.808 576.331 300.286 555.619C276.332 549.458 328.679 527.254 343.024 457.729C345.996 443.329 394.455 295.895 402.43 285.184C457.088 211.775 479.334 228.731 492.889 205.63C499.358 194.605 508.285 213.727 512.422 222.431C547.322 295.859 555.77 359.762 485.888 453.619Z" fill="#E2D0AE"/>
<path fill-rule="evenodd" clip-rule="evenodd" d="M400.109 246.676C345.892 312.492 346.447 371.356 328.6 416.332C294.241 502.918 271.886 553.521 227.521 520.488C160.833 470.835 163.423 354.497 233.305 260.64C303.187 166.783 387.252 137.948 463.648 170.755C474.373 175.361 475.272 187.906 468.787 196.446C458.775 209.631 440.537 197.6 400.109 246.676Z" fill="#E2D0AE"/>
</g>
</g>
<defs>
<clipPath id="clip0_170_361">
<rect width="544" height="431" fill="white"/>
</clipPath>
<clipPath id="clip1_170_361">
<rect width="422" height="422" fill="white" transform="translate(-136 4)"/>
</clipPath>
<clipPath id="clip2_170_361">
<rect width="422" height="422" fill="white" transform="translate(317.02 61) rotate(36.6699)"/>
</clipPath>
</defs>
</svg>
