<svg width="150" height="85" viewBox="0 0 150 85" fill="none" xmlns="http://www.w3.org/2000/svg">
<path d="M52.9006 10.1309L30.801 32.9624L12.0233 13.5222L5.37964 20.4003L30.801 46.7186L52.9006 23.8393L75.0001 46.7186L97.0996 23.8393L119.199 46.7186L144.621 20.4003L137.977 13.5222L119.199 32.9624L97.0996 10.1309L75.0001 32.9624L52.9006 10.1309Z" fill="#E2D0AE"/>
<path d="M52.9006 42.9452L30.801 65.8245L12.0233 46.3365L5.37964 53.2146L30.801 79.5329L52.9006 56.6536L75.0001 79.5329L97.0996 56.6536L119.199 79.5329L144.621 53.2146L137.977 46.3365L119.199 65.7767L97.0996 42.9452L75.0001 65.8245L52.9006 42.9452Z" fill="#E2D0AE"/>
</svg>
