<svg width="382" height="332" viewBox="0 0 382 332" fill="none" xmlns="http://www.w3.org/2000/svg">
<path fill-rule="evenodd" clip-rule="evenodd" d="M169.001 2.80223L152.683 15.859C150.431 18.6445 149.581 21.9212 150.322 25.7318L158.353 84.5856L136.04 51.4887C134.03 49.4983 131.351 48.1741 127.932 47.5721C122.073 46.3219 116.38 45.7947 110.994 46.5698L104.506 48.3574L87.0372 60.8571C82.5153 64.7632 80.5816 69.3616 83.0794 75.122L95.8692 93.0115C95.5526 93.2121 95.2526 93.4394 94.967 93.6823L70.7309 114.532C69.1997 116.274 67.9855 118.101 67.4777 119.985C59.5297 111.449 51.8022 103.506 44.5764 96.2673C43.3471 95.0368 41.6307 94.3808 39.6575 94.1399C31.3521 93.142 22.1471 96.6564 16.519 102.346L4.19631 114.788C0.664683 118.784 -1.20621 123.289 3.4513 127.727C5.47687 129.645 7.70187 131.319 9.69374 133.136C29.3723 151.092 45.1406 167.412 58.2419 185.359C57.2461 185.665 56.2758 186.133 55.3999 186.777C52.2309 189.102 51.0723 193.08 52.581 196.458C57.7679 208.023 64.6928 229.868 72.908 255.774C99.269 338.907 138.44 462.424 189.772 451.171L384.697 405.273C393.179 399.332 395.469 382.649 393.516 358.605C391.97 344.816 377.3 223.606 369.265 159.229C368.946 156.667 359.197 224.09 258.957 264.233C222.898 278.674 149.289 286.922 94.5832 263.152C94.3321 263.043 95.871 261.392 98.8567 262.027C205.784 284.778 249.288 252.645 258.855 252.992C332.991 225.562 371.947 156.641 367.511 152.226C367.511 152.226 364.71 128.245 364.659 126.111C364.549 121.612 360.543 118.162 355.722 118.423C354.351 118.489 353.059 118.854 351.914 119.441C352.18 92.0337 356.115 69.8229 369.439 36.6896C370.443 34.1791 371.725 31.7137 372.708 29.1093C374.978 23.0909 371.337 19.8416 366.431 17.7715L349.929 11.9094C342.389 9.22571 332.564 10.0573 325.514 14.5602C323.849 15.6217 322.586 16.9558 322.015 18.6071C318.577 28.4777 315.331 39.3317 312.354 50.8452C311.143 48.8996 308.927 47.5003 306.367 46.4156L275.494 38.1452C275.154 38.055 274.81 37.9958 274.468 37.9454L278.109 17.0654C278.424 9.76421 275.776 7.16963 270.315 5.56205L249.721 1.71014C246.284 1.35893 242.978 1.57888 239.904 2.77419C237.01 4.33357 233.915 6.13709 230.385 8.0391C227.814 9.42599 226.174 10.224 223.957 12.1819C222.087 13.8431 220.62 15.6801 219.848 17.8514L218.617 26.467C217.103 37.0145 215.927 44.7499 215.689 53.6038L210.425 9.67105C210.487 4.48182 208.238 1.5787 204.479 0.145399L169.001 2.80223ZM157.731 21.5409L190.232 19.0118C192.646 87.5163 210.177 172.737 229.696 239.315C230.161 240.905 222.32 130.819 221.861 66.2493C221.659 37.8763 228.362 20.9851 228.568 21.6699C228.7 22.1083 257.931 26.4993 257.931 26.4993C238.474 62.9096 253.572 202.688 256.927 221.105L229.873 239.885C229.873 239.885 233.85 253.11 234.025 253.673L211.133 259.412C207.874 251.998 204.849 245.232 202.02 239.093L201.851 238.727L201.784 238.583C196.795 227.979 191.299 216.918 185.422 205.737L185.371 205.511L184.29 203.586C183.915 201.916 94.9639 73.4801 93.4916 72.4534C88.3407 68.8614 117.631 53.2814 123.155 56.8661C134.336 64.1219 156.448 94.628 156.448 94.628C156.448 94.628 167.969 152.264 174.67 178.185C180.878 202.199 182.307 194.662 182.218 194.259C169.519 136.312 157.221 65.4006 157.731 21.5409ZM35.7463 103.94C78.9547 143.279 117.318 185.059 140.676 240.425L106.782 237.09C89.932 194.598 59.7896 154.469 19.3723 119.934L35.7463 103.94ZM105.108 102.301C148.306 141.642 172.282 194.437 200.288 252.515L164.639 251.713C143.934 206.339 126.051 169.259 83.2431 122.105L105.108 102.301ZM308.105 68.5945C303.714 88.325 298.979 109.459 295.82 130.346C292.275 153.789 290.433 176.64 293.859 197.405C294.932 203.908 324.017 34.2241 326.674 21.3018C326.759 20.8909 360.545 32.2555 360.545 32.2555C354.712 46.6067 344.55 88.3467 341.813 121.592C340.888 132.817 311.876 192.353 311.876 192.353L292.848 200.457L289.5 207.895C289.5 207.895 264.251 220.039 263.952 217.988C260.399 193.59 255.31 56.0746 269.548 54.9458L308.105 68.5945Z" fill="#3C3F4A"/>
</svg>
