<svg xmlns="http://www.w3.org/2000/svg" width="202" height="202" fill="none">
  <g fill="#1B253F" clip-path="url(#a)">
    <path d="M190.778 179.556c-6.198 0-11.222 5.024-11.222 11.222 0 6.198 5.024 11.222 11.222 11.222 6.198 0 11.222-5.024 11.222-11.222 0-6.198-5.024-11.222-11.222-11.222ZM190.778 134.667c-6.198 0-11.222 5.024-11.222 11.222 0 6.198 5.024 11.222 11.222 11.222 6.198 0 11.222-5.024 11.222-11.222 0-6.198-5.024-11.222-11.222-11.222ZM190.778 89.778c-6.198 0-11.222 5.024-11.222 11.222 0 6.198 5.024 11.222 11.222 11.222 6.198 0 11.222-5.024 11.222-11.222 0-6.198-5.024-11.222-11.222-11.222ZM190.778 44.889c-6.198 0-11.222 5.024-11.222 11.222 0 6.198 5.024 11.222 11.222 11.222 6.198 0 11.222-5.024 11.222-11.222 0-6.198-5.024-11.222-11.222-11.222ZM190.778 0c-6.198 0-11.222 5.024-11.222 11.222 0 6.198 5.024 11.223 11.222 11.223 6.198 0 11.222-5.025 11.222-11.223S196.976 0 190.778 0ZM145.889 181.8a8.979 8.979 0 1 0 .001 17.957 8.979 8.979 0 0 0-.001-17.957ZM145.889 136.911a8.979 8.979 0 1 0 .001 17.957 8.979 8.979 0 0 0-.001-17.957ZM145.889 92.022a8.978 8.978 0 1 0 0 17.957 8.978 8.978 0 0 0 0-17.957ZM145.889 47.133a8.978 8.978 0 1 0 0 17.957 8.978 8.978 0 0 0 0-17.957ZM145.889 2.244a8.978 8.978 0 1 0 0 17.957 8.978 8.978 0 0 0 0-17.957ZM101 184.044a6.734 6.734 0 1 0 0 13.467 6.734 6.734 0 0 0 0-13.467ZM101 139.156a6.733 6.733 0 1 0 0 13.466 6.732 6.732 0 0 0 6.733-6.733 6.732 6.732 0 0 0-6.733-6.733ZM101 94.267a6.733 6.733 0 1 0 0 13.466 6.733 6.733 0 0 0 0-13.466ZM101 49.378a6.733 6.733 0 1 0 0 13.466 6.733 6.733 0 0 0 0-13.466ZM101 4.489a6.733 6.733 0 1 0 0 13.467 6.733 6.733 0 0 0 0-13.467ZM56.111 186.289a4.49 4.49 0 1 0 0 8.978 4.49 4.49 0 0 0 0-8.978ZM56.111 141.4a4.49 4.49 0 1 0 0 8.978 4.49 4.49 0 0 0 0-8.978ZM56.111 96.511a4.489 4.489 0 1 0 0 8.978 4.489 4.489 0 0 0 0-8.978ZM56.111 51.622a4.489 4.489 0 1 0 0 8.978 4.489 4.489 0 0 0 0-8.978ZM56.111 6.733a4.489 4.489 0 1 0 0 8.978 4.489 4.489 0 0 0 0-8.978ZM11.222 188.533a2.245 2.245 0 1 0 0 4.49 2.245 2.245 0 0 0 0-4.49ZM11.222 143.644a2.245 2.245 0 1 0 0 4.49 2.245 2.245 0 0 0 0-4.49ZM11.222 98.756a2.244 2.244 0 1 0 0 4.488 2.244 2.244 0 0 0 0-4.488ZM11.222 53.867a2.244 2.244 0 1 0 0 4.489 2.244 2.244 0 0 0 0-4.49ZM11.222 8.978a2.244 2.244 0 1 0 0 4.489 2.244 2.244 0 0 0 0-4.49Z"/>
  </g>
  <defs>
    <clipPath id="a">
      <path fill="#fff" d="M202 202H0V0h202z"/>
    </clipPath>
  </defs>
</svg>
